<svg width="162" height="43" viewBox="0 0 162 43" fill="none" xmlns="http://www.w3.org/2000/svg">
<path d="M17.3968 18.0029C14.3313 18.0029 11.8364 15.5186 11.8364 12.4636C11.8364 9.4098 14.3313 6.92438 17.3968 6.92438C20.4636 6.92438 22.9584 9.4098 22.9584 12.4636C22.9584 15.5186 20.4636 18.0029 17.3968 18.0029ZM17.3968 10.3865C16.2471 10.3865 15.3115 11.3186 15.3115 12.4636C15.3115 13.6098 16.2471 14.5419 17.3968 14.5419C18.5478 14.5419 19.4833 13.6098 19.4833 12.4636C19.4833 11.3186 18.5478 10.3865 17.3968 10.3865Z" fill="#FF3131"/>
<mask id="mask0_177_16" style="mask-type:luminance" maskUnits="userSpaceOnUse" x="0" y="0" width="35" height="43">
<path d="M0 0H34.7947V42.93H0V0Z" fill="white"/>
</mask>
<g mask="url(#mask0_177_16)">
<path d="M30.6066 0C28.5437 0 26.8302 1.50043 26.4972 3.46217H26.0677C24.5555 3.46217 23.1574 4.05293 22.1124 5.05557C21.5829 2.95144 19.6717 1.3851 17.3969 1.3851C15.1233 1.3851 13.2134 2.95144 12.6826 5.05557C11.6365 4.05293 10.2396 3.46217 8.72739 3.46217H8.29785C7.96481 1.50043 6.25138 0 4.18843 0C1.88895 0 0.0178223 1.86407 0.0178223 4.15531C0.0178223 6.44656 1.88895 8.30945 4.18843 8.30945C6.25138 8.30945 7.96481 6.80902 8.29785 4.84728H8.72739C10.3314 4.84728 11.7718 5.71459 12.532 7.11028V9.69455H5.57942C4.81214 9.69455 4.18843 10.3159 4.18843 11.0797V12.4636C4.18843 13.2273 4.81214 13.8487 5.57942 13.8487H10.1137C8.99688 15.2008 8.36022 16.9178 8.36022 18.696V23.5432H7.66473C6.51499 23.5432 5.57942 24.4753 5.57942 25.6203V31.1596C5.57942 32.3046 6.51499 33.2366 7.66473 33.2366H9.45936C10.1902 34.3558 11.2469 35.2572 12.5308 35.7915V38.0839C12.5308 40.7553 14.715 42.93 17.3969 42.93C20.0801 42.93 22.2642 40.7553 22.2642 38.0839V35.7915C23.5481 35.2572 24.6049 34.3558 25.3357 33.2366H27.1303C28.2801 33.2366 29.2156 32.3046 29.2156 31.1596V25.6203C29.2156 24.4753 28.2801 23.5432 27.1303 23.5432H26.4348V18.696C26.4348 16.9178 25.7982 15.2008 24.6814 13.8487H29.2156C29.9829 13.8487 30.6066 13.2273 30.6066 12.4636V11.0797C30.6066 10.3159 29.9829 9.69455 29.2156 9.69455H22.2642V7.11028C23.0233 5.71459 24.4637 4.84728 26.0677 4.84728H26.4984C26.8302 6.80902 28.5437 8.30945 30.6066 8.30945C32.9073 8.30945 34.7784 6.44656 34.7784 4.15531C34.7784 1.86407 32.9061 0 30.6066 0ZM4.18843 6.92435C2.65505 6.92435 1.40763 5.68281 1.40763 4.15531C1.40763 2.62781 2.65505 1.3851 4.18843 1.3851C5.72299 1.3851 6.96923 2.62781 6.96923 4.15531C6.96923 5.68281 5.72299 6.92435 4.18843 6.92435ZM5.57942 11.0797H6.96923V12.4636H5.57942V11.0797ZM7.66473 31.8515C7.28109 31.8515 6.96923 31.542 6.96923 31.1596V25.6203C6.96923 25.2379 7.28109 24.9272 7.66473 24.9272H8.36022V29.5497C8.36022 30.3523 8.50615 31.1278 8.76858 31.8515H7.66473ZM9.75003 29.5497V18.696C9.75003 17.9393 9.89949 17.2002 10.1643 16.5059L15.527 25.0543C13.0239 25.5932 11.141 27.8139 11.141 30.4664C11.141 31.2302 11.7647 31.8515 12.5308 31.8515V34.2463C10.8386 33.3096 9.75003 31.5314 9.75003 29.5497ZM18.0924 26.3123C20.3931 26.3123 22.2642 28.1752 22.2654 30.4664H12.5308C12.5308 28.1752 14.402 26.3123 16.7026 26.3123H18.0924ZM14.635 40.161H15.3116V38.7759H13.9913C13.9454 38.5523 13.9218 38.3204 13.9218 38.0839V37.3908H15.3116V36.0068H13.9218V34.6217H15.3116V33.2366H13.9218V31.8515H16.7026V41.4755C15.8589 41.3048 15.1363 40.8212 14.635 40.161ZM18.0924 41.4755V31.8515H20.8732V33.2366H19.4834V34.6217H20.8732V36.0068H19.4834V37.3908H20.8732V38.0839C20.8732 38.3204 20.8497 38.5523 20.8038 38.7759H19.4834V40.161H20.1601C19.6588 40.8212 18.9362 41.3048 18.0924 41.4755ZM22.2642 34.2463V31.8515C23.0303 31.8515 23.654 31.2302 23.654 30.4664C23.654 27.8139 21.7711 25.5932 19.2681 25.0543L24.6308 16.5059C24.8956 17.2002 25.045 17.9393 25.045 18.696V29.5497C25.045 31.5314 23.9565 33.3096 22.2642 34.2463ZM27.1303 24.9272C27.514 24.9272 27.8258 25.2379 27.8258 25.6203V31.1596C27.8258 31.542 27.514 31.8515 27.1303 31.8515H26.0265C26.2889 31.1278 26.4348 30.3523 26.4348 29.5497V24.9272H27.1303ZM29.2156 12.4636H27.8258V11.0797H29.2156V12.4636ZM26.4348 11.0797V12.4636H22.9585C22.9585 12.7849 22.9197 13.0967 22.8644 13.4027C22.8362 13.5698 22.8067 13.7357 22.7632 13.8969C23.1904 14.2488 23.5575 14.6572 23.8741 15.0996L17.7076 24.9272H17.0874L10.921 15.0996C11.2375 14.6572 11.6047 14.2488 12.0319 13.8969C11.9871 13.7357 11.9589 13.5686 11.9307 13.4027C11.8754 13.0967 11.8365 12.7849 11.8365 12.4636H8.36022V11.0797H12.0189C12.1448 10.5913 12.3367 10.13 12.5838 9.70279C12.9309 9.10615 13.384 8.57659 13.9218 8.14705V6.23238C13.9218 4.3236 15.4811 2.77021 17.3969 2.77021C19.314 2.77021 20.8732 4.3236 20.8732 6.23238V8.14705C21.411 8.57659 21.8641 9.10615 22.2113 9.70279C22.4584 10.13 22.649 10.5913 22.7761 11.0797H26.4348ZM30.6066 6.92435C29.0721 6.92435 27.8258 5.68281 27.8258 4.15531C27.8258 2.62781 29.0721 1.3851 30.6066 1.3851C32.14 1.3851 33.3874 2.62781 33.3874 4.15531C33.3874 5.68281 32.14 6.92435 30.6066 6.92435Z" fill="white"/>
</g>
<path d="M17.3968 9.69458C15.8634 9.69458 14.6172 10.9361 14.6172 12.4636C14.6172 13.9911 15.8634 15.2338 17.3968 15.2338C18.9314 15.2338 20.1776 13.9911 20.1776 12.4636C20.1776 10.9361 18.9314 9.69458 17.3968 9.69458ZM17.3968 13.8487C16.6307 13.8487 16.007 13.2274 16.007 12.4636C16.007 11.6999 16.6307 11.0797 17.3968 11.0797C18.1641 11.0797 18.7878 11.6999 18.7878 12.4636C18.7878 13.2274 18.1641 13.8487 17.3968 13.8487Z" fill="white"/>
<path d="M54.9014 5.17838C54.9014 4.97893 54.8227 4.85999 54.5849 4.85999H47.2764C47.0989 4.85999 46.98 4.97893 46.98 5.17838V20.4266C46.98 20.626 47.0989 20.745 47.2764 20.745H54.5849C54.8227 20.745 54.9014 20.626 54.9014 20.4266V18.4412C54.9014 18.2234 54.8227 18.1246 54.5849 18.1246H49.6205V14.1136H53.4119C53.6114 14.1136 53.7303 13.9946 53.7303 13.775V11.8098C53.7303 11.592 53.6114 11.4713 53.4119 11.4713H49.6205V7.50047H54.5849C54.8227 7.50047 54.9014 7.3614 54.9014 7.16377V5.17838Z" fill="white"/>
<path d="M66.456 20.745C66.6938 20.745 66.7744 20.626 66.7341 20.4083L63.4367 5.13812C63.3983 4.93867 63.2793 4.85999 63.1 4.85999H60.3406C60.1613 4.85999 60.0423 4.93867 60.0021 5.13812L56.7065 20.4083C56.6461 20.626 56.7468 20.745 56.9645 20.745H59.089C59.2683 20.745 59.3671 20.6461 59.4074 20.4668L59.9435 17.5683H63.477L64.0332 20.4668C64.0735 20.6461 64.1723 20.745 64.3516 20.745H66.456ZM62.9811 15.2645H60.4394L61.7093 8.33488L62.9811 15.2645Z" fill="white"/>
<path d="M68.9947 4.85999C68.7952 4.88011 68.6763 4.97893 68.6763 5.19668V7.1839C68.6763 7.38153 68.7952 7.50047 68.9947 7.50047H73.1045L68.1603 20.2692C68.0413 20.5455 68.1401 20.745 68.4585 20.745H76.1823C76.3818 20.7248 76.5007 20.6059 76.5007 20.4083V18.4412C76.5007 18.2234 76.3818 18.1246 76.1823 18.1246H71.8145L76.7587 5.33575C76.8576 5.05761 76.7789 4.85999 76.4605 4.85999H68.9947Z" fill="white"/>
<path d="M86.5049 5.17838C86.5049 4.97893 86.4263 4.85999 86.1884 4.85999H78.8799C78.7024 4.85999 78.5835 4.97893 78.5835 5.17838V20.4266C78.5835 20.626 78.7024 20.745 78.8799 20.745H86.1884C86.4263 20.745 86.5049 20.626 86.5049 20.4266V18.4412C86.5049 18.2234 86.4263 18.1246 86.1884 18.1246H81.224V14.1136H85.0154C85.2149 14.1136 85.3338 13.9946 85.3338 13.775V11.8098C85.3338 11.592 85.2149 11.4713 85.0154 11.4713H81.224V7.50047H86.1884C86.4263 7.50047 86.5049 7.3614 86.5049 7.16377V5.17838Z" fill="white"/>
<path d="M95.5965 4.85999C95.3586 4.85999 95.2196 4.9588 95.1409 5.17838L92.9158 10.8765L90.6925 5.17838C90.6138 4.9588 90.4747 4.85999 90.235 4.85999H88.2496C87.9532 4.85999 87.8141 5.03931 87.9331 5.31745L91.5672 14.152V20.3479C91.5672 20.6059 91.7044 20.745 91.9642 20.745H93.8691C94.1271 20.745 94.2662 20.6059 94.2662 20.3479V14.152L97.9003 5.31745C98.0192 5.03931 97.8802 4.85999 97.5819 4.85999H95.5965Z" fill="white"/>
<path d="M99.3281 17.8849C99.3281 19.7513 100.32 20.745 102.186 20.745H104.411C106.278 20.745 107.27 19.7513 107.27 17.8849V7.72005C107.27 5.8536 106.278 4.85999 104.411 4.85999H102.186C100.32 4.85999 99.3281 5.8536 99.3281 7.72005V17.8849ZM102.763 18.1832C102.247 18.1832 101.969 17.9252 101.969 17.389V8.21594C101.969 7.69992 102.247 7.42178 102.763 7.42178H103.914C104.43 7.42178 104.708 7.69992 104.708 8.21594V17.389C104.708 17.9252 104.43 18.1832 103.914 18.1832H102.763Z" fill="white"/>
<path d="M114.972 4.85999C114.753 4.85999 114.575 5.03931 114.575 5.25706V17.3304C114.575 17.8666 114.297 18.1246 113.781 18.1246H112.747C112.231 18.1246 111.953 17.8666 111.953 17.3304V5.25706C111.953 5.03931 111.776 4.85999 111.556 4.85999H109.651C109.432 4.85999 109.254 5.03931 109.254 5.25706V17.8849C109.254 19.7513 110.246 20.745 112.112 20.745H114.337C116.204 20.745 117.196 19.7513 117.196 17.8849V5.25706C117.196 5.03931 117.016 4.85999 116.799 4.85999H114.972Z" fill="white"/>
<path d="M127.339 7.72005C127.339 5.8536 126.347 4.85999 124.481 4.85999H119.496C119.299 4.85999 119.18 4.97893 119.18 5.17838V20.4266C119.18 20.626 119.299 20.745 119.496 20.745H121.562C121.76 20.745 121.879 20.626 121.879 20.4266V15.4237H123.249L124.58 20.4668C124.62 20.6461 124.719 20.745 124.918 20.745H126.982C127.2 20.745 127.321 20.626 127.26 20.3881L125.89 15.1859C126.843 14.7687 127.339 13.894 127.339 12.5637V7.72005ZM121.879 12.8016V7.48034H123.846C124.362 7.48034 124.64 7.75848 124.64 8.27449V12.0074C124.64 12.5252 124.362 12.8016 123.846 12.8016H121.879Z" fill="white"/>
<path d="M137.483 7.72005C137.483 5.8536 136.491 4.85999 134.625 4.85999H129.64C129.443 4.85999 129.324 4.97893 129.324 5.17838V20.4266C129.324 20.626 129.443 20.745 129.64 20.745H131.706C131.904 20.745 132.023 20.626 132.023 20.4266V15.4237H133.393L134.724 20.4668C134.764 20.6461 134.863 20.745 135.062 20.745H137.126C137.344 20.745 137.465 20.626 137.404 20.3881L136.034 15.1859C136.987 14.7687 137.483 13.894 137.483 12.5637V7.72005ZM132.023 12.8016V7.48034H133.99C134.506 7.48034 134.784 7.75848 134.784 8.27449V12.0074C134.784 12.5252 134.506 12.8016 133.99 12.8016H132.023Z" fill="white"/>
<path d="M139.785 4.85999C139.567 4.85999 139.468 4.97893 139.468 5.17838V20.4266C139.468 20.626 139.567 20.745 139.785 20.745H141.85C142.048 20.745 142.167 20.626 142.167 20.4266V5.17838C142.167 4.97893 142.048 4.85999 141.85 4.85999H139.785Z" fill="white"/>
<path d="M144.153 20.4266C144.153 20.6461 144.252 20.745 144.469 20.745H149.236C151.103 20.745 152.094 19.7513 152.094 17.8849V7.73835C152.094 5.8719 151.103 4.85999 149.236 4.85999H144.469C144.252 4.85999 144.153 4.97893 144.153 5.17838V20.4266ZM146.852 18.1246V7.48034H148.68C149.196 7.48034 149.474 7.75848 149.474 8.29462V17.3304C149.474 17.8666 149.196 18.1246 148.68 18.1246H146.852Z" fill="white"/>
<path d="M162 5.17838C162 4.97893 161.921 4.85999 161.683 4.85999H154.375C154.198 4.85999 154.079 4.97893 154.079 5.17838V20.4266C154.079 20.626 154.198 20.745 154.375 20.745H161.683C161.921 20.745 162 20.626 162 20.4266V18.4412C162 18.2234 161.921 18.1246 161.683 18.1246H156.719V14.1136H160.511C160.71 14.1136 160.829 13.9946 160.829 13.775V11.8098C160.829 11.592 160.71 11.4713 160.511 11.4713H156.719V7.50047H161.683C161.921 7.50047 162 7.3614 162 7.16377V5.17838Z" fill="white"/>
<path d="M59.8555 34.6359C59.8555 36.1748 60.6752 36.9928 62.2123 36.9928H64.3734C65.8958 36.9928 66.7302 36.1748 66.7302 34.6359V30.0851C66.7302 29.9057 66.6333 29.8234 66.4686 29.8234H63.7183C63.539 29.8234 63.4566 29.9057 63.4566 30.0851V31.7228C63.4566 31.8856 63.539 31.9844 63.7183 31.9844H64.5692V34.1766C64.5692 34.6194 64.3404 34.8317 63.9159 34.8317H62.7375C62.3111 34.8317 62.0824 34.6194 62.0824 34.1766V26.7145C62.0824 26.2881 62.2947 26.0594 62.7375 26.0594H63.9159C64.3404 26.0594 64.5692 26.2881 64.5692 26.7145V27.9569C64.5692 28.1216 64.6515 28.2186 64.8327 28.2186H66.4686C66.6333 28.2186 66.7302 28.1216 66.7302 27.9569V26.2552C66.7302 24.7163 65.8958 23.8983 64.3734 23.8983H62.2123C60.6752 23.8983 59.8555 24.7163 59.8555 26.2552V34.6359Z" fill="#BF0A30"/>
<path d="M74.8977 24.16C74.8977 23.9971 74.8337 23.8983 74.636 23.8983H68.6121C68.4658 23.8983 68.3669 23.9971 68.3669 24.16V36.7311C68.3669 36.8939 68.4658 36.9928 68.6121 36.9928H74.636C74.8337 36.9928 74.8977 36.8939 74.8977 36.7311V35.0934C74.8977 34.914 74.8337 34.8317 74.636 34.8317H70.5445V31.5252H73.6699C73.8346 31.5252 73.9334 31.4282 73.9334 31.247V29.6276C73.9334 29.4464 73.8346 29.3495 73.6699 29.3495H70.5445V26.0758H74.636C74.8337 26.0758 74.8977 25.9606 74.8977 25.7977V24.16Z" fill="#BF0A30"/>
<path d="M76.4689 23.8983C76.3061 23.8983 76.2073 23.9971 76.2073 24.16V25.7977C76.2073 25.9606 76.3061 26.0594 76.4689 26.0594H78.3683V36.7311C78.3683 36.9104 78.4671 36.9928 78.63 36.9928H80.3336C80.5129 36.9928 80.5953 36.9104 80.5953 36.7311V26.0594H82.4928C82.674 26.0594 82.7545 25.9606 82.7545 25.7977V24.16C82.7545 23.9971 82.674 23.8983 82.4928 23.8983H76.4689Z" fill="#BF0A30"/>
<path d="M88.156 31.8527C88.156 32.0668 88.2713 32.1802 88.4835 32.1802H91.0691C91.2832 32.1802 91.3967 32.0668 91.3967 31.8527V30.3467C91.3967 30.1344 91.2832 30.0192 91.0691 30.0192H88.4835C88.2713 30.0192 88.156 30.1344 88.156 30.3467V31.8527Z" fill="#BF0A30"/>
<path d="M99.4826 23.8983C97.9601 23.8983 97.1257 24.7163 97.1257 26.2552V30.118C97.1257 30.4291 97.274 30.6249 97.5686 30.7237L101.448 32.0009V34.1766C101.448 34.6194 101.219 34.8317 100.793 34.8317H100.008C99.5979 34.8317 99.3527 34.6194 99.3527 34.1766V32.9177C99.3527 32.7365 99.2703 32.656 99.091 32.656H97.3874C97.2245 32.656 97.1257 32.7365 97.1257 32.9177V34.6359C97.1257 36.1748 97.9601 36.9928 99.4826 36.9928H101.316C102.855 36.9928 103.673 36.1748 103.673 34.6359V30.8554C103.673 30.5443 103.527 30.3632 103.248 30.2497L99.3527 28.9725V26.7145C99.3527 26.2881 99.5979 26.0594 100.008 26.0594H100.793C101.234 26.0594 101.448 26.2881 101.448 26.7145V27.9899C101.448 28.1546 101.545 28.2515 101.71 28.2515H103.411C103.592 28.2515 103.673 28.1546 103.673 27.9899V26.2552C103.673 24.7163 102.855 23.8983 101.316 23.8983H99.4826Z" fill="#BF0A30"/>
<path d="M111.841 24.16C111.841 23.9971 111.777 23.8983 111.579 23.8983H105.555C105.409 23.8983 105.31 23.9971 105.31 24.16V36.7311C105.31 36.8939 105.409 36.9928 105.555 36.9928H111.579C111.777 36.9928 111.841 36.8939 111.841 36.7311V35.0934C111.841 34.914 111.777 34.8317 111.579 34.8317H107.488V31.5252H110.613C110.778 31.5252 110.876 31.4282 110.876 31.247V29.6276C110.876 29.4464 110.778 29.3495 110.613 29.3495H107.488V26.0758H111.579C111.777 26.0758 111.841 25.9606 111.841 25.7977V24.16Z" fill="#BF0A30"/>
<path d="M113.412 23.8983C113.249 23.8983 113.15 23.9971 113.15 24.16V25.7977C113.15 25.9606 113.249 26.0594 113.412 26.0594H115.311V36.7311C115.311 36.9104 115.41 36.9928 115.573 36.9928H117.276C117.456 36.9928 117.538 36.9104 117.538 36.7311V26.0594H119.436C119.617 26.0594 119.697 25.9606 119.697 25.7977V24.16C119.697 23.9971 119.617 23.8983 119.436 23.8983H113.412Z" fill="#BF0A30"/>
<path d="M125.099 31.8527C125.099 32.0668 125.214 32.1802 125.427 32.1802H128.012C128.226 32.1802 128.34 32.0668 128.34 31.8527V30.3467C128.34 30.1344 128.226 30.0192 128.012 30.0192H125.427C125.214 30.0192 125.099 30.1344 125.099 30.3467V31.8527Z" fill="#BF0A30"/>
<path d="M134.069 34.6359C134.069 36.1748 134.889 36.9928 136.426 36.9928H138.587C140.109 36.9928 140.944 36.1748 140.944 34.6359V30.0851C140.944 29.9057 140.847 29.8234 140.682 29.8234H137.932C137.753 29.8234 137.67 29.9057 137.67 30.0851V31.7228C137.67 31.8856 137.753 31.9844 137.932 31.9844H138.783V34.1766C138.783 34.6194 138.554 34.8317 138.13 34.8317H136.951C136.525 34.8317 136.296 34.6194 136.296 34.1766V26.7145C136.296 26.2881 136.508 26.0594 136.951 26.0594H138.13C138.554 26.0594 138.783 26.2881 138.783 26.7145V27.9569C138.783 28.1216 138.865 28.2186 139.046 28.2186H140.682C140.847 28.2186 140.944 28.1216 140.944 27.9569V26.2552C140.944 24.7163 140.109 23.8983 138.587 23.8983H136.426C134.889 23.8983 134.069 24.7163 134.069 26.2552V34.6359Z" fill="#BF0A30"/>
<path d="M142.58 34.6359C142.58 36.1748 143.4 36.9928 144.937 36.9928H146.771C148.31 36.9928 149.128 36.1748 149.128 34.6359V26.2552C149.128 24.7163 148.31 23.8983 146.771 23.8983H144.937C143.4 23.8983 142.58 24.7163 142.58 26.2552V34.6359ZM145.413 34.8811C144.987 34.8811 144.758 34.6688 144.758 34.226V26.6651C144.758 26.2387 144.987 26.01 145.413 26.01H146.363C146.787 26.01 147.016 26.2387 147.016 26.6651V34.226C147.016 34.6688 146.787 34.8811 146.363 34.8811H145.413Z" fill="#BF0A30"/>
</svg>
